<mxfile host="app.diagrams.net" modified="2023-02-27T21:42:43.036Z" agent="5.0 (Linux; Android 13; SM-T225N) AppleWebKit/537.36 (KHTML, like Gecko) Chrome/110.0.0.0 Safari/537.36" etag="F7vwIVT_ghwqv-xKvjxW" version="20.8.23" type="github">
  <diagram name="Page-1" id="PSQ3fo3GOsseWzx3ZaFU">
    <mxGraphModel dx="568" dy="716" grid="0" gridSize="10" guides="1" tooltips="1" connect="1" arrows="1" fold="1" page="0" pageScale="1" pageWidth="827" pageHeight="1169" math="0" shadow="0">
      <root>
        <mxCell id="0" />
        <mxCell id="1" parent="0" />
        <mxCell id="ODb7YuCe97WlUrrvwu7f-1" value="Start" style="rounded=1;whiteSpace=wrap;html=1;fontSize=12;glass=0;strokeWidth=1;shadow=0;" vertex="1" parent="1">
          <mxGeometry x="80" y="40" width="120" height="30" as="geometry" />
        </mxCell>
        <mxCell id="ODb7YuCe97WlUrrvwu7f-2" value="" style="edgeStyle=none;curved=1;rounded=0;orthogonalLoop=1;jettySize=auto;html=1;fontSize=12;startSize=8;endSize=8;" edge="1" parent="1" source="ODb7YuCe97WlUrrvwu7f-3" target="ODb7YuCe97WlUrrvwu7f-4">
          <mxGeometry relative="1" as="geometry" />
        </mxCell>
        <mxCell id="ODb7YuCe97WlUrrvwu7f-3" value="Initialize sum of squares to 0" style="rounded=0;whiteSpace=wrap;html=1;fontSize=16;" vertex="1" parent="1">
          <mxGeometry x="50" y="100" width="160" height="60" as="geometry" />
        </mxCell>
        <mxCell id="ODb7YuCe97WlUrrvwu7f-4" value="Take input of numbers" style="shape=parallelogram;perimeter=parallelogramPerimeter;whiteSpace=wrap;html=1;fixedSize=1;fontSize=16;" vertex="1" parent="1">
          <mxGeometry x="70" y="200" width="120" height="60" as="geometry" />
        </mxCell>
        <mxCell id="ODb7YuCe97WlUrrvwu7f-5" value="Split input string into list of individual numbers" style="rounded=0;whiteSpace=wrap;html=1;fontSize=16;" vertex="1" parent="1">
          <mxGeometry x="60" y="290" width="160" height="70" as="geometry" />
        </mxCell>
        <mxCell id="ODb7YuCe97WlUrrvwu7f-6" value="For each number in the list:&lt;br&gt;Calculate its square" style="rounded=0;whiteSpace=wrap;html=1;fontSize=16;" vertex="1" parent="1">
          <mxGeometry x="60" y="400" width="160" height="80" as="geometry" />
        </mxCell>
        <mxCell id="ODb7YuCe97WlUrrvwu7f-7" style="edgeStyle=none;curved=1;rounded=0;orthogonalLoop=1;jettySize=auto;html=1;entryX=1;entryY=0.5;entryDx=0;entryDy=0;fontSize=12;startSize=8;endSize=8;" edge="1" parent="1" source="ODb7YuCe97WlUrrvwu7f-1" target="ODb7YuCe97WlUrrvwu7f-1">
          <mxGeometry relative="1" as="geometry" />
        </mxCell>
        <mxCell id="ODb7YuCe97WlUrrvwu7f-8" style="edgeStyle=none;curved=1;rounded=0;orthogonalLoop=1;jettySize=auto;html=1;entryX=0.5;entryY=1;entryDx=0;entryDy=0;fontSize=12;startSize=8;endSize=8;" edge="1" parent="1" source="ODb7YuCe97WlUrrvwu7f-1" target="ODb7YuCe97WlUrrvwu7f-1">
          <mxGeometry relative="1" as="geometry" />
        </mxCell>
        <mxCell id="ODb7YuCe97WlUrrvwu7f-9" value="" style="orthogonalLoop=1;jettySize=auto;html=1;rounded=0;fontSize=12;entryX=0.375;entryY=0;entryDx=0;entryDy=0;entryPerimeter=0;exitX=0.417;exitY=1;exitDx=0;exitDy=0;exitPerimeter=0;" edge="1" parent="1" source="ODb7YuCe97WlUrrvwu7f-4" target="ODb7YuCe97WlUrrvwu7f-5">
          <mxGeometry width="140" relative="1" as="geometry">
            <mxPoint x="120" y="260" as="sourcePoint" />
            <mxPoint x="270" y="260" as="targetPoint" />
          </mxGeometry>
        </mxCell>
        <mxCell id="ODb7YuCe97WlUrrvwu7f-10" value="" style="edgeStyle=none;orthogonalLoop=1;jettySize=auto;html=1;rounded=0;fontSize=12;entryX=0.5;entryY=0;entryDx=0;entryDy=0;" edge="1" parent="1" source="ODb7YuCe97WlUrrvwu7f-5" target="ODb7YuCe97WlUrrvwu7f-6">
          <mxGeometry width="140" relative="1" as="geometry">
            <mxPoint x="120" y="350" as="sourcePoint" />
            <mxPoint x="260" y="350" as="targetPoint" />
            <Array as="points" />
          </mxGeometry>
        </mxCell>
        <mxCell id="ODb7YuCe97WlUrrvwu7f-11" value="Add the square to the sum of squares variable" style="rounded=0;whiteSpace=wrap;html=1;fontSize=16;" vertex="1" parent="1">
          <mxGeometry x="40" y="550" width="160" height="80" as="geometry" />
        </mxCell>
        <mxCell id="ODb7YuCe97WlUrrvwu7f-12" value="" style="edgeStyle=orthogonalEdgeStyle;orthogonalLoop=1;jettySize=auto;html=1;rounded=0;fontSize=12;entryX=1;entryY=0.5;entryDx=0;entryDy=0;entryPerimeter=0;exitX=1;exitY=0.25;exitDx=0;exitDy=0;" edge="1" parent="1" source="ODb7YuCe97WlUrrvwu7f-6" target="ODb7YuCe97WlUrrvwu7f-11">
          <mxGeometry width="140" relative="1" as="geometry">
            <mxPoint x="230" y="440" as="sourcePoint" />
            <mxPoint x="240" y="580" as="targetPoint" />
            <Array as="points">
              <mxPoint x="220" y="430" />
              <mxPoint x="280" y="430" />
              <mxPoint x="280" y="590" />
            </Array>
          </mxGeometry>
        </mxCell>
        <mxCell id="ODb7YuCe97WlUrrvwu7f-13" value="" style="edgeStyle=none;orthogonalLoop=1;jettySize=auto;html=1;rounded=0;fontSize=12;entryX=0.5;entryY=0;entryDx=0;entryDy=0;" edge="1" parent="1" source="ODb7YuCe97WlUrrvwu7f-6" target="ODb7YuCe97WlUrrvwu7f-11">
          <mxGeometry width="140" relative="1" as="geometry">
            <mxPoint x="310" y="420" as="sourcePoint" />
            <mxPoint x="290" y="420" as="targetPoint" />
            <Array as="points">
              <mxPoint x="120" y="480" />
            </Array>
          </mxGeometry>
        </mxCell>
        <mxCell id="ODb7YuCe97WlUrrvwu7f-14" value="" style="edgeStyle=none;orthogonalLoop=1;jettySize=auto;html=1;rounded=0;fontSize=12;entryX=0.5;entryY=0;entryDx=0;entryDy=0;" edge="1" parent="1" target="ODb7YuCe97WlUrrvwu7f-16">
          <mxGeometry width="140" relative="1" as="geometry">
            <mxPoint x="150" y="630" as="sourcePoint" />
            <mxPoint x="150" y="670" as="targetPoint" />
            <Array as="points" />
          </mxGeometry>
        </mxCell>
        <mxCell id="ODb7YuCe97WlUrrvwu7f-15" value="" style="edgeStyle=orthogonalEdgeStyle;rounded=0;orthogonalLoop=1;jettySize=auto;html=1;fontSize=12;" edge="1" parent="1" source="ODb7YuCe97WlUrrvwu7f-16" target="ODb7YuCe97WlUrrvwu7f-17">
          <mxGeometry relative="1" as="geometry" />
        </mxCell>
        <mxCell id="ODb7YuCe97WlUrrvwu7f-16" value="Print the final value of the sum of squares variable" style="shape=parallelogram;perimeter=parallelogramPerimeter;whiteSpace=wrap;html=1;fixedSize=1;fontSize=16;" vertex="1" parent="1">
          <mxGeometry x="50" y="680" width="200" height="110" as="geometry" />
        </mxCell>
        <mxCell id="ODb7YuCe97WlUrrvwu7f-17" value="Stop" style="rounded=1;whiteSpace=wrap;html=1;fontSize=16;" vertex="1" parent="1">
          <mxGeometry x="350" y="705" width="120" height="60" as="geometry" />
        </mxCell>
        <mxCell id="ODb7YuCe97WlUrrvwu7f-18" value="" style="edgeStyle=none;orthogonalLoop=1;jettySize=auto;html=1;rounded=0;fontSize=12;" edge="1" parent="1" target="ODb7YuCe97WlUrrvwu7f-3">
          <mxGeometry width="140" relative="1" as="geometry">
            <mxPoint x="130" y="70" as="sourcePoint" />
            <mxPoint x="240" y="140" as="targetPoint" />
            <Array as="points" />
          </mxGeometry>
        </mxCell>
      </root>
    </mxGraphModel>
  </diagram>
</mxfile>
